<svg width="143" height="182" viewBox="0 0 143 182" fill="none" xmlns="http://www.w3.org/2000/svg">
<path d="M6.00001 181C3.23859 181 1.00001 178.761 1.00001 176L1 6.00001C1 3.23858 3.23858 1.00001 6 1.00001L137 1C139.761 1 142 3.23858 142 6V176C142 178.761 139.761 181 137 181H6.00001Z" stroke="black"/>
<path d="M19 46C16.2386 46 14 43.7614 14 41L14 14C14 11.2386 16.2386 9.00001 19 9.00001L62 9.00001C64.7614 9.00001 67 11.2386 67 14V41C67 43.7614 64.7614 46 62 46L19 46Z" stroke="black"/>
<path d="M81 46C78.2386 46 76 43.7614 76 41V14C76 11.2386 78.2386 9.00001 81 9.00001L124 9.00001C126.761 9.00001 129 11.2386 129 14V41C129 43.7614 126.761 46 124 46L81 46Z" stroke="black"/>
</svg>
